<?xml version="1.0" encoding="UTF-8" standalone="no"?>
<!-- Created with Inkscape (http://www.inkscape.org/) -->

<svg
   width="99.980957"
   height="79.752747"
   viewBox="0 0 26.453294 21.101248"
   version="1.1"
   id="svg1"
   xml:space="preserve"
   xmlns="http://www.w3.org/2000/svg"
   xmlns:svg="http://www.w3.org/2000/svg"><defs
     id="defs1" /><g
     id="g44"
     transform="translate(-153.07266,-397.18541)"
     style="display:inline"><g
       id="g43"
       transform="matrix(0.05477459,0,0,0.05477459,152.16724,393.71354)"><path
         style="fill:#f4ab5c;fill-opacity:1"
         d="m 122.468,254.481 c -17.383,-20.238 -27.877,-46.55 -27.877,-75.329 0,-1.728 0.038,-3.456 0.125,-5.172 2.693,-61.528 53.438,-110.595 115.655,-110.595 63.933,0 115.768,51.835 115.768,115.768 0,30.62 -11.91,58.447 -31.321,79.149 76.043,7.74 131.472,-4.483 167.753,-27.514 15.993,-10.157 36.907,1.465 36.907,20.413 v 18.648 c 0,98.736 -42.467,178.774 -141.203,178.774 H 202.757 c -56.644,0 -102.505,-46.137 -102.092,-102.868 0.238,-30.908 14.427,-58.397 36.481,-76.932 -5.31,-4.336 -10.219,-9.145 -14.678,-14.342 z"
         id="path1-6" /><path
         style="fill:#f86e8f;fill-opacity:1"
         d="M 122.468,254.481 C 4.6503577,246.54188 17.469278,221.99942 17.469278,221.99942 7.1584309,203.15373 84.898,184.487 94.716,173.979 c -0.088,1.716 -0.125,3.444 -0.125,5.172 0,28.78 10.495,55.092 27.877,75.33 z"
         id="path2-4" /><path
         d="m 179.087,182.846 c 6.916,0 12.524,-5.607 12.524,-12.524 v -31.434 c 0,-6.917 -5.608,-12.524 -12.524,-12.524 -6.915,0 -12.524,5.607 -12.524,12.524 v 31.434 c 0.001,6.917 5.609,12.524 12.524,12.524 z"
         id="path6" /></g></g></svg>
