<?xml version="1.0" encoding="UTF-8" standalone="no"?>
<!-- Created with Inkscape (http://www.inkscape.org/) -->

<svg
   width="1920"
   height="2160"
   viewBox="0 0 507.99999 571.5"
   version="1.1"
   id="svg1"
   xml:space="preserve"
   xmlns="http://www.w3.org/2000/svg"
   xmlns:svg="http://www.w3.org/2000/svg"><defs
     id="defs1" /><g
     id="layer3"
     transform="translate(-0.3,-30)"><path
       id="path2"
       style="fill:#613e8d;fill-opacity:1;stroke:none;stroke-width:2.00238;stroke-linecap:round;stroke-linejoin:round;stroke-opacity:1;paint-order:stroke fill markers"
       d="m 508.3,269.57814 c -8.75127,-4.02185 -16.40032,-8.36778 -26.06146,-9.78752 -12.30312,-1.80798 -27.51411,-5.03299 -37.0832,-3.97465 -9.56909,1.05833 -12.57011,7.72275 -17.99406,2.82795 -3.70001,-3.33904 -6.28003,-7.05993 -10.3316,-13.29252 -16.23569,7.02578 -27.4322,11.76475 -83.7686,25.79564 -34.2321,8.5257 -79.03414,17.02418 -76.97411,26.54773 3.4008,15.72191 20.24579,21.99039 20.24579,21.99039 H 508.3 Z" /><path
       id="path22"
       style="fill:#6f47a2;fill-opacity:1;stroke:none;stroke-width:2.00238;stroke-linecap:round;stroke-linejoin:round;stroke-opacity:1;paint-order:stroke fill markers"
       d="m 476.67092,229.88496 c -12.69244,0.0834 -29.2297,2.77365 -49.65485,11.16986 -5.41423,2.22563 -9.50593,4.00068 -13.29531,5.64048 4.05157,6.23259 8.02072,11.78458 11.72073,15.12362 5.42395,4.8948 10.27466,5.07153 19.84375,4.0132 9.56909,-1.05834 23.85643,-3.35156 36.15955,-1.54358 9.66114,1.41974 18.10394,5.36879 26.85521,9.39064 v -36.83031 c 0,0 -10.47501,-7.10288 -31.62908,-6.96391 z" /></g><path
     style="fill:#a078d8;fill-opacity:1;stroke-width:2;stroke-linecap:round;stroke-linejoin:round;paint-order:stroke fill markers"
     d="m 457.97872,219.79395 c -4.08886,-8.92115 -8.92115,-13.01001 0.74343,-31.22403 9.66458,-18.21402 14.68273,-30.4806 22.48873,-22.30288 7.80601,8.17772 11.72699,12.48774 12.26659,30.29474 0.55757,18.39987 -2.74538,15.76492 -7.80601,20.81602 -13.43803,13.41277 -27.69274,2.41615 -27.69274,2.41615 z"
     id="path2-3-5" /><path
     id="rect2-4"
     style="fill:#482a1b;fill-opacity:1;stroke-width:0.922381;stroke-linecap:round;stroke-linejoin:round;paint-order:stroke fill markers"
     d="m 473.58353,190.72721 c 0.44835,0.29673 2.03574,0 2.03574,0 l 1.13682,59.94022 h -5.67912 z" /><path
     id="rect2-3-7"
     style="fill:#482a1b;fill-opacity:1;stroke-width:0.31825;stroke-linecap:round;stroke-linejoin:round;paint-order:stroke fill markers"
     d="m 485.61232,199.45715 c -0.0247,0.17028 0.25309,0.93394 0.25309,0.93394 l -10.87195,12.092 -0.54176,-2.60996 z" /><path
     id="rect2-3-1-4"
     style="fill:#482a1b;fill-opacity:1;stroke-width:0.440723;stroke-linecap:round;stroke-linejoin:round;paint-order:stroke fill markers"
     d="m 462.57794,191.09753 c 0.19412,0.0416 1.06465,-0.42578 1.06465,-0.42578 l 10.85762,15.83897 -0.0485,3.36241 z" /><path
     style="fill:#8165e5;fill-opacity:1;stroke-width:2;stroke-linecap:round;stroke-linejoin:round;paint-order:stroke fill markers"
     d="m 394.80186,251.52488 c 4.08886,-8.92115 8.92115,-13.01002 -0.74343,-31.22403 -9.66458,-18.21402 -14.68273,-30.4806 -22.48873,-22.30288 -7.80601,8.17772 -11.72699,12.48774 -12.26659,30.29474 -0.55757,18.39987 2.74538,15.76492 7.80601,20.81602 13.43803,13.41277 27.69274,2.41615 27.69274,2.41615 z"
     id="path2-2-0" /><path
     id="rect2-0-4"
     style="fill:#482a1b;fill-opacity:1;stroke-width:0.922381;stroke-linecap:round;stroke-linejoin:round;paint-order:stroke fill markers"
     d="m 379.19705,222.45814 c -0.44835,0.29673 -2.03574,0 -2.03574,0 l -1.13682,59.94022 h 5.67912 z" /><path
     id="rect2-3-6-8"
     style="fill:#482a1b;fill-opacity:1;stroke-width:0.31825;stroke-linecap:round;stroke-linejoin:round;paint-order:stroke fill markers"
     d="m 367.16826,231.18808 c 0.0247,0.17028 -0.25309,0.93394 -0.25309,0.93394 l 10.87195,12.092 0.54176,-2.60996 z" /><path
     id="rect2-3-1-8-7"
     style="fill:#482a1b;fill-opacity:1;stroke-width:0.440723;stroke-linecap:round;stroke-linejoin:round;paint-order:stroke fill markers"
     d="m 390.20264,222.82846 c -0.19412,0.0415 -1.06466,-0.42578 -1.06466,-0.42578 l -10.85761,15.83897 0.0485,3.36241 z" /></svg>
