<?xml version="1.0" encoding="UTF-8" standalone="no"?>
<!-- Created with Inkscape (http://www.inkscape.org/) -->

<svg
   width="1920"
   height="1094"
   viewBox="0 0 507.99999 289.45424"
   version="1.1"
   id="svg1"
   xml:space="preserve"
   sodipodi:docname="foreground.svg"
   inkscape:version="1.4 (e7c3feb100, 2024-10-09)"
   xmlns:inkscape="http://www.inkscape.org/namespaces/inkscape"
   xmlns:sodipodi="http://sodipodi.sourceforge.net/DTD/sodipodi-0.dtd"
   xmlns="http://www.w3.org/2000/svg"
   xmlns:svg="http://www.w3.org/2000/svg"><sodipodi:namedview
     id="namedview1"
     pagecolor="#ffffff"
     bordercolor="#000000"
     borderopacity="0.25"
     inkscape:showpageshadow="2"
     inkscape:pageopacity="0.0"
     inkscape:pagecheckerboard="0"
     inkscape:deskcolor="#d1d1d1"
     inkscape:zoom="0.18495371"
     inkscape:cx="1830.1877"
     inkscape:cy="1300.3254"
     inkscape:window-width="1920"
     inkscape:window-height="1008"
     inkscape:window-x="0"
     inkscape:window-y="0"
     inkscape:window-maximized="1"
     inkscape:current-layer="svg1" /><defs
     id="defs1" /><g
     id="layer3"
     transform="translate(-0.3,-30)"><path
       id="path2"
       style="fill:#613e8d;fill-opacity:1;stroke:none;stroke-width:2.00238;stroke-linecap:round;stroke-linejoin:round;stroke-opacity:1;paint-order:stroke fill markers"
       d="m 508.3,269.57814 c -8.75127,-4.02185 -16.40032,-8.36778 -26.06146,-9.78752 -12.30312,-1.80798 -27.51411,-5.03299 -37.0832,-3.97465 -9.56909,1.05833 -12.57011,7.72275 -17.99406,2.82795 -3.70001,-3.33904 -6.28003,-7.05993 -10.3316,-13.29252 -16.23569,7.02578 -27.4322,11.76475 -83.7686,25.79564 -34.2321,8.5257 -79.03414,17.02418 -76.97411,26.54773 3.4008,15.72191 20.24579,21.99039 20.24579,21.99039 H 508.3 Z" /><path
       id="path22"
       style="fill:#6f47a2;fill-opacity:1;stroke:none;stroke-width:2.00238;stroke-linecap:round;stroke-linejoin:round;stroke-opacity:1;paint-order:stroke fill markers"
       d="m 476.67092,229.88496 c -12.69244,0.0834 -29.2297,2.77365 -49.65485,11.16986 -5.41423,2.22563 -9.50593,4.00068 -13.29531,5.64048 4.05157,6.23259 8.02072,11.78458 11.72073,15.12362 5.42395,4.8948 10.27466,5.07153 19.84375,4.0132 9.56909,-1.05834 23.85643,-3.35156 36.15955,-1.54358 9.66114,1.41974 18.10394,5.36879 26.85521,9.39064 v -36.83031 c 0,0 -10.47501,-7.10288 -31.62908,-6.96391 z" /></g><path
     style="fill:#512fa6;fill-opacity:1;stroke-width:2;stroke-linecap:round;stroke-linejoin:round;paint-order:stroke fill markers"
     d="m -69.55976,306.73639 c 61.4875998,-20.58968 70.54927979,-52.76861 142.343939,-32.54697 63.590091,17.91075 116.619281,17.91075 166.449111,6.53256 68.76116,-15.70098 39.93914,-16.93284 100.78763,-6.30714 60.84848,10.62572 69.31515,-7.89512 129.11098,-8.42428 59.79583,-0.52917 48.46225,41.96104 54.28309,48.31104 5.82083,6.35 44.67107,25.24312 44.67107,25.24312 0,0 -621.24165,9.525 -623.35832,7.9375 -2.11667,-1.5875 -14.2875,-40.74583 -14.2875,-40.74583 z"
     id="path20"
     sodipodi:nodetypes="cssssscsc" /><path
     style="fill:#a078d8;fill-opacity:1;stroke-width:1.48393;stroke-linecap:round;stroke-linejoin:round;paint-order:stroke fill markers"
     d="m 458.58692,223.27025 c -3.0338,-6.61918 -6.61919,-9.65298 0.5516,-23.16716 7.17079,-13.51418 10.89409,-22.61557 16.68588,-16.54798 5.79179,6.06759 8.70102,9.26548 9.10138,22.47767 0.4137,13.65207 -2.03698,11.69703 -5.79179,15.44478 -9.97056,9.95182 -20.54707,1.79269 -20.54707,1.79269 z"
     id="path2-3-5-2"
     sodipodi:nodetypes="cssssc" /><path
     id="rect2-4-6"
     style="fill:#482a1b;fill-opacity:1;stroke-width:0.684375;stroke-linecap:round;stroke-linejoin:round;paint-order:stroke fill markers"
     d="m 470.16516,201.70372 c 0.33266,0.22016 1.51045,0 1.51045,0 l 0.84348,44.47361 h -4.21372 z"
     sodipodi:nodetypes="ccccc" /><path
     id="rect2-3-7-1"
     style="fill:#482a1b;fill-opacity:1;stroke-width:0.236131;stroke-linecap:round;stroke-linejoin:round;paint-order:stroke fill markers"
     d="m 479.09011,208.18104 c -0.0183,0.12635 0.18778,0.69295 0.18778,0.69295 l -8.06661,8.97186 -0.40197,-1.93651 z"
     sodipodi:nodetypes="ccccc" /><path
     id="rect2-3-1-4-8"
     style="fill:#482a1b;fill-opacity:1;stroke-width:0.327001;stroke-linecap:round;stroke-linejoin:round;paint-order:stroke fill markers"
     d="m 461.99939,201.97849 c 0.14403,0.0309 0.78993,-0.31591 0.78993,-0.31591 l 8.05598,11.75197 -0.036,2.49479 z"
     sodipodi:nodetypes="ccccc" /><path
     style="fill:#8165e5;fill-opacity:1;stroke-width:1.75058;stroke-linecap:round;stroke-linejoin:round;paint-order:stroke fill markers"
     d="m 395.4503,242.06327 c 3.57895,-7.8086 7.80861,-11.38757 -0.65072,-27.33015 -8.45933,-15.94259 -12.85168,-26.67943 -19.68421,-19.52153 -6.83254,7.1579 -10.26455,10.93042 -10.73685,26.51675 -0.48804,16.10526 2.40301,13.79892 6.83254,18.2201 11.7622,11.7401 24.23924,2.11483 24.23924,2.11483 z"
     id="path2-2-0"
     sodipodi:nodetypes="cssssc" /><path
     id="rect2-0-4"
     style="fill:#482a1b;fill-opacity:1;stroke-width:0.807353;stroke-linecap:round;stroke-linejoin:round;paint-order:stroke fill markers"
     d="m 381.79153,216.62138 c -0.39244,0.25972 -1.78187,0 -1.78187,0 l -0.99505,52.46521 h 4.97089 z"
     sodipodi:nodetypes="ccccc" /><path
     id="rect2-3-6-8"
     style="fill:#482a1b;fill-opacity:1;stroke-width:0.278562;stroke-linecap:round;stroke-linejoin:round;paint-order:stroke fill markers"
     d="m 371.26282,224.26263 c 0.0216,0.14904 -0.22153,0.81747 -0.22153,0.81747 l 9.51614,10.58403 0.4742,-2.28448 z"
     sodipodi:nodetypes="ccccc" /><path
     id="rect2-3-1-8-7"
     style="fill:#482a1b;fill-opacity:1;stroke-width:0.385761;stroke-linecap:round;stroke-linejoin:round;paint-order:stroke fill markers"
     d="m 391.42464,216.94552 c -0.16992,0.0363 -0.93189,-0.37268 -0.93189,-0.37268 l -9.50358,13.86372 0.0424,2.9431 z"
     sodipodi:nodetypes="ccccc" /></svg>
