<svg width="500" height="500" xmlns="http://www.w3.org/2000/svg">
    <defs>
        <linearGradient id="one" cx="50%" cy="50%" r="50%">
            <stop offset="100%" style="stop-color: #FF2F41; stop-opacity: 1" />
            <stop offset="0%" style="stop-color: #FF960E; stop-opacity: 1" />
        </linearGradient>
        <radialGradient id="two" x1="0%" y1="0%" x2="100%" y2="100%">
            <stop offset="0%" style="stop-color: #FF5A1F; stop-opacity: 1" />
            <stop offset="100%" style="stop-color: #CC004B; stop-opacity: 1" />
        </radialGradient>
        <radialGradient id="three" x1="0%" y1="0%" x2="100%" y2="100%">
            <stop offset="0%" style="stop-color: #FCBA24; stop-opacity: 1" />
            <stop offset="100%" style="stop-color: #FF2F41; stop-opacity: 1" />
        </radialGradient>
        <linearGradient id="four" cx="50%" cy="50%" r="50%">
            <stop offset="100%" style="stop-color: #FCBA24; stop-opacity: 1" />
            <stop offset="0%" style="stop-color: #FF5A1F; stop-opacity: 1" />
        </linearGradient>
        <linearGradient id="five" cx="50%" cy="50%" r="50%">
            <stop offset="0%" style="stop-color: #FF2F41; stop-opacity: 1" />
            <stop offset="100%" style="stop-color: #FCBA24; stop-opacity: 1" />
        </linearGradient>
    </defs>

    <path
        d="M 200,100 C 250,70 300,120 290,190 C 280,260 220,300 150,280 C 80,260 70,190 120,140 C 170,90 150,110 200,100 Z"
        fill="url(#one)" opacity="0.8" />
    
    <path
        d="M 200,100 C 250,70 300,120 290,190 C 280,260 220,300 150,280 C 80,260 70,190 120,140 C 170,90 150,110 200,100 Z"
        fill="url(#two)" opacity="0.8" transform="translate(-100, 0)" />
            
    <path
        d="M87.5,59.5Q77,69,69,77Q61,85,48.5,89Q36,93,30.5,80.5Q25,68,18.5,59Q12,50,17.5,40Q23,30,29,17Q35,4,48,10.5Q61,17,71,22Q81,27,89.5,38.5Q98,50,87.5,59.5Z"
        fill="url(#two)" transform="scale(3) translate(-30, 60)" opacity="0.8" />
        
    <path
        d="M61.8 -113.5C78.8 -85.1 90.6 -65.9 128.4 -41.5C166.2 -17.1 230.1 12.6 235.8 40.1C241.6 67.7 189.2 93.1 148.5 114.4C107.8 135.6 78.8 152.7 47.5 161.9C16.2 171.1 -17.4 172.4 -42.8 158.9C-68.3 145.5 -85.5 117.3 -96 91C-106.5 64.8 -110.1 40.6 -138.5 5C-166.8 -30.6 -219.9 -77.6 -224 -116.2C-228.1 -154.9 -183.2 -185.1 -137.8 -200.5C-92.3 -215.9 -46.1 -216.5 -11.9 -197.9C22.3 -179.4 44.7 -141.9 61.8 -113.5"
        fill="url(#four)" opacity="0.8" transform="scale(0.6) translate(400, 400) rotate(120, 0, 0)" />
    
    <path
        d="M88.8 -165.1C105.8 -127.2 104.1 -87 135.7 -51.9C167.2 -16.9 232.1 12.9 237.1 39.8C242 66.7 187.2 90.6 147.6 117.3C108 143.9 83.7 173.2 53.7 181.3C23.7 189.3 -12.1 176.2 -44.4 161.9C-76.8 147.6 -105.6 132.1 -125 108.8C-144.5 85.6 -154.4 54.6 -167.9 18.8C-181.4 -17.1 -198.5 -57.8 -182.6 -79.5C-166.6 -101.2 -117.6 -104 -81.7 -133.3C-45.8 -162.6 -22.9 -218.3 6.5 -228.4C35.9 -238.5 71.7 -202.9 88.8 -165.1"
        fill="url(#three)" opacity="0.8" transform="scale(0.3) translate(900, 600) rotate(180, 0, 0)" />
    
    <path
        d="M88.8 -165.1C105.8 -127.2 104.1 -87 135.7 -51.9C167.2 -16.9 232.1 12.9 237.1 39.8C242 66.7 187.2 90.6 147.6 117.3C108 143.9 83.7 173.2 53.7 181.3C23.7 189.3 -12.1 176.2 -44.4 161.9C-76.8 147.6 -105.6 132.1 -125 108.8C-144.5 85.6 -154.4 54.6 -167.9 18.8C-181.4 -17.1 -198.5 -57.8 -182.6 -79.5C-166.6 -101.2 -117.6 -104 -81.7 -133.3C-45.8 -162.6 -22.9 -218.3 6.5 -228.4C35.9 -238.5 71.7 -202.9 88.8 -165.1"
        fill="url(#four)" opacity="0.8" transform="scale(0.3) translate(300, 1400) rotate(180, 0, 0)" />
    
    <path
        d="M51.6 -52.6C51.6 -41.1 25.8 -20.6 13.2 -9.7C0.6 1.2 1.2 2.4 -5.3 15.9C-11.9 29.4 -25.5 55.3 -50.1 60.2C-74.8 65.2 -110.5 49.3 -115.3 26.7C-120.2 4.2 -94.1 -25 -69.7 -42.1C-45.3 -59.2 -22.7 -64.1 1.6 -65.3C25.8 -66.6 51.6 -64.2 51.6 -52.6"
        fill="url(#three)" opacity="0.8" transform="scale(0.6) translate(600, 250) rotate(180, 0, 0)" />
</svg>