<?xml version="1.0" encoding="UTF-8" standalone="no"?>
<!-- Created with Inkscape (http://www.inkscape.org/) -->

<svg
   width="1920"
   height="1080"
   viewBox="0 0 507.99995 285.74998"
   version="1.1"
   id="svg1"
   inkscape:version="1.4 (e7c3feb100, 2024-10-09)"
   sodipodi:docname="clouds4.svg"
   xmlns:inkscape="http://www.inkscape.org/namespaces/inkscape"
   xmlns:sodipodi="http://sodipodi.sourceforge.net/DTD/sodipodi-0.dtd"
   xmlns="http://www.w3.org/2000/svg"
   xmlns:svg="http://www.w3.org/2000/svg">
  <sodipodi:namedview
     id="namedview1"
     pagecolor="#ffffff"
     bordercolor="#000000"
     borderopacity="0.25"
     inkscape:showpageshadow="2"
     inkscape:pageopacity="0.0"
     inkscape:pagecheckerboard="0"
     inkscape:deskcolor="#d1d1d1"
     inkscape:document-units="mm"
     inkscape:zoom="0.50331262"
     inkscape:cx="821.557"
     inkscape:cy="779.83342"
     inkscape:window-width="1920"
     inkscape:window-height="1008"
     inkscape:window-x="0"
     inkscape:window-y="0"
     inkscape:window-maximized="1"
     inkscape:current-layer="layer1" />
  <defs
     id="defs1" />
  <g
     inkscape:label="Layer 1"
     inkscape:groupmode="layer"
     id="layer1">
    <path
       style="display:none;fill:#8f8f8f;fill-opacity:0.152941;stroke:none;stroke-width:1.68111;stroke-linecap:round;stroke-linejoin:round;stroke-dasharray:none;stroke-opacity:1;paint-order:stroke fill markers"
       d="m 18.55839,132.27019 c -0.60922,-7.96016 9.024288,-11.06098 14.139736,-15.9072 4.740126,-4.49065 10.68927,-15.36754 17.232803,-16.34907 15.050653,-2.257601 30.83649,19.85454 53.907741,17.2328 4.16254,-0.47301 8.3682,-0.97731 12.37226,-2.20933 12.43895,-3.82737 9.73835,-15.819411 25.62827,-16.349071 7.47349,-0.24911 25.63394,-2.18669 28.27948,8.395471 2.86603,11.46414 3.63031,38.82977 -8.83734,45.95415 -4.72833,2.7019 -18.17113,0.98598 -22.97707,0.88372 -18.65079,-0.39682 -38.17315,-3.35658 -55.675203,-10.16293 -7.957119,-3.09443 -3.149591,-2.99673 -10.6048,-4.86054 -1.491829,-0.37295 -0.348048,3.23165 -1.325601,4.41867 -1.46259,1.77601 -3.134133,3.64929 -5.3024,4.41867 -2.691661,0.95511 -65.06199441,-2.01911 -65.39627841,-4.86053 -0.510183,-4.33656 1.60933701,-6.51175 3.53493401,-9.72107 7.3197544,-12.19959 5.584605,0.29613 18.5584014,-1.3256"
       id="path50" />
    <path
       style="display:none;fill:#8f8f8f;fill-opacity:0.152941;stroke:none;stroke-width:2;stroke-linecap:round;stroke-linejoin:round;stroke-dasharray:none;stroke-opacity:1;paint-order:stroke fill markers"
       d="m 309.07423,103.91193 c 0.0732,-7.731101 8.46328,-13.475731 15.24484,-15.244841 5.45148,-1.42212 27.7527,-9.77942 33.64376,-6.83389 7.27728,3.63865 25.40492,17.68381 34.69515,12.61642 2.61059,-1.42397 4.13176,-4.28186 6.3082,-6.30821 12.65534,-11.78255 26.24534,-24.948935 44.68312,-15.24483 10.83628,5.7033 12.57935,18.25069 15.24484,28.912611 0.19405,0.77619 5.51244,10.47923 4.20548,11.03936 -8.34187,3.57509 -25.04626,3.74002 -34.16946,5.78253 -7.54901,1.69007 -15.18481,3.06745 -22.60441,5.25683 -6.25475,1.84567 -13.70309,7.3623 -20.50166,7.88526 -5.07193,0.39015 -5.63282,-15.36562 -20.50167,-14.71914 -25.32456,1.10106 -32.33319,25.55866 -59.40229,5.25683 -2.83869,-2.12901 -9.46899,-3.51348 -11.56504,-6.3082 -2.56778,-3.42371 15.53125,-6.49678 15.77051,-8.41095 0.15823,-1.26582 -0.7009,-2.45319 -1.05137,-3.67978 z"
       id="path51" />
    <path
       style="display:none;fill:#8f8f8f;fill-opacity:0.152941;stroke:none;stroke-width:2;stroke-linecap:round;stroke-linejoin:round;stroke-dasharray:none;stroke-opacity:1;paint-order:stroke fill markers"
       d="m 354.1381,168.24589 c -2.89438,-7.53438 -0.68043,-9.20778 2.58874,-15.38289 9.87049,-18.64426 24.84755,-20.45848 45.20882,-14.19347 8.25852,2.54108 11.43992,11.17288 18.92462,13.66778 6.09039,2.03013 11.65521,-7.12659 15.77051,-9.46231 4.50271,-2.55558 9.24505,-4.78561 14.19347,-6.3082 7.2322,-2.2253 14.03757,2.54936 19.45031,6.3082 9.91659,6.88652 22.25543,12.43795 15.24482,27.86125 -2.72947,6.00488 -7.85196,10.68314 -12.61639,15.24483 -19.94493,19.0962 -41.06892,7.76701 -64.13344,3.1541 -4.47662,-0.89532 -24.01888,-1.11819 -27.86126,-3.67978 -5.69468,-3.79646 -2.55725,-5.37834 -11.03934,-9.46231 -8.73027,-4.20346 -14.86422,-0.4942 -15.73086,-7.7472 z"
       id="path52" />
    <path
       style="fill:#ffffff;fill-opacity:0.152941;stroke-width:2;stroke-linecap:round;stroke-linejoin:round;paint-order:stroke fill markers"
       d="m 4.20547,136.44791 c 9.89865,-10.70611 20.31455,-20.65926 33.11808,-27.86125 0.63702,-0.35832 12.35726,10.74003 18.92462,12.61642 20.22853,5.77958 15.5485,-6.29113 29.4383,-7.35958 10.04074,-0.77236 18.80284,8.46737 27.86125,12.09073 6.70901,2.68361 27.10791,3.73776 29.96398,6.30821 12.61896,11.35706 3.39503,56.41391 -17.34757,55.72249 -16.58397,-0.5528 -16.68825,-20.89372 -26.28421,-30.48966 -8.83647,-8.8365 -29.6227,12.2968 -42.58038,9.4623 -9.93896,-2.17414 -21.02672,-6.01215 -29.96398,-11.03936 -3.8582,-2.17024 -5.02757,-7.30052 -8.93663,-9.98799 C 16.40491,144.53933 7.83822,142.96016 6.83389,141.70475 1.79538,135.40661 7.4318,136.04462 0,136.97359"
       id="path2" />
  </g>
</svg>
